<svg width="50" height="41" viewBox="0 0 50 41" fill="none" xmlns="http://www.w3.org/2000/svg">
<path d="M21.5371 34.1675C21.5371 34.1675 2.34446 35.8532 0.376514 28.2672C-1.59143 20.6812 4.31271 7.75633 14.4011 3.54126C24.4896 -0.673812 41.3925 -1.17021 46.1438 6.09176C49.5318 11.1492 52.7873 27.7053 46.1438 31.9199C40.9766 34.4489 32.3093 34.1675 30.8882 34.1675C28.784 34.1675 21.5371 40.9111 21.5371 40.9111V34.1675Z" fill="#EE0033"/>
<path d="M24.326 30.7216C24.326 30.7216 8.79595 32.0777 7.6416 27.6286C6.48725 23.1796 10.9379 13.9393 16.8549 11.4673C22.772 8.9952 37.2454 9.05164 40.0318 13.3111C42.019 16.2774 44.9753 26.8918 41.0764 29.3634C38.0461 30.8466 30.6438 30.7212 29.8106 30.7212C28.5762 30.7212 24.3264 34.6764 24.3264 34.6764L24.326 30.7216Z" fill="white"/>
<path d="M10.8365 10.8797C11.8312 10.8797 12.6375 9.95892 12.6375 8.82305C12.6375 7.68717 11.8312 6.76636 10.8365 6.76636C9.84177 6.76636 9.0354 7.68717 9.0354 8.82305C9.0354 9.95892 9.84177 10.8797 10.8365 10.8797Z" fill="white"/>
<path d="M40.8587 9.86899C41.8534 9.86899 42.6598 8.94818 42.6598 7.8123C42.6598 6.67643 41.8534 5.75562 40.8587 5.75562C39.864 5.75562 39.0576 6.67643 39.0576 7.8123C39.0576 8.94818 39.864 9.86899 40.8587 9.86899Z" fill="white"/>
<path d="M17.2109 13.9496L11.3818 8.3645L10.4926 9.57458L16.3217 15.1597L17.2109 13.9496Z" fill="white"/>
<path d="M36.0913 15.407L41.0835 8.84937L40.0394 7.81303L35.0473 14.3707L36.0913 15.407Z" fill="white"/>
<path d="M21.0439 23.2217C22.3704 23.2217 23.4457 21.9938 23.4457 20.479C23.4457 18.9643 22.3704 17.7363 21.0439 17.7363C19.7174 17.7363 18.6421 18.9643 18.6421 20.479C18.6421 21.9938 19.7174 23.2217 21.0439 23.2217Z" fill="#EE0033"/>
<path d="M36.6555 23.2217C37.9819 23.2217 39.0573 21.9938 39.0573 20.479C39.0573 18.9643 37.9819 17.7363 36.6555 17.7363C35.329 17.7363 34.2537 18.9643 34.2537 20.479C34.2537 21.9938 35.329 23.2217 36.6555 23.2217Z" fill="#EE0033"/>
<path d="M31.1061 18.6428C31.2493 18.7545 31.2761 18.9628 31.1493 19.093C30.9009 19.3481 30.6083 19.5576 30.2849 19.7109C29.8621 19.9113 29.3983 20.01 28.9306 19.9992C28.4628 19.9884 28.0041 19.8683 27.591 19.6485C27.2751 19.4805 26.9925 19.2576 26.7561 18.9912C26.6355 18.8553 26.6719 18.6485 26.8202 18.5435C26.9685 18.4385 27.1723 18.4755 27.2971 18.6077C27.4713 18.7922 27.6748 18.9477 27.9001 19.0676C28.2226 19.2391 28.5807 19.3328 28.9458 19.3413C29.3109 19.3498 29.673 19.2727 30.0031 19.1163C30.2337 19.007 30.4442 18.861 30.6267 18.6848C30.7574 18.5586 30.9628 18.531 31.1061 18.6428Z" fill="#EE0033"/>
</svg>
